# xmcd
#
# Track frame offsets:
#	150
#	18407
#	39235
#	63112
#	90095
#	112507
#	134537
#	155357
#	172920
#	196275
#	217455
#	238082
#	255847
#	279607
#	303847
#	327297
#
# Disc length: 4624 seconds
#
# Revision: 0
# Processed by: cddbd v1.4PL0 Copyright (c) Steve Scherf et al.
# Submitted via: EasyCDDAExtractor 4.6.9.1
#
DISCID=c8120e10
DTITLE=LightHouse Famaly - Whatever Gets You Though the Day | Postcards From H
DTITLE=eaven
DYEAR=2001
DGENRE=Pop
TTITLE0=Run
TTITLE1=Happy
TTITLE2=(I wish I Knew it Would To Be) Free-One
TTITLE3=End Of the Sky
TTITLE4=Life's a Dream
TTITLE5=It's a Beautifull Day
TTITLE6=You're a Star
TTITLE7=You Always Want What You Haven't Got
TTITLE8=Wish
TTITLE9=Whatever Gets Ypu Through the Day
TTITLE10=Raincloud
TTITLE11=Once In a Blue Moon
TTITLE12=Let it All Change
TTITLE13=Sun In the Night
TTITLE14=High
TTITLE15=Postcards From Heaven
EXTD=
EXTT0=
EXTT1=
EXTT2=
EXTT3=
EXTT4=
EXTT5=
EXTT6=
EXTT7=
EXTT8=
EXTT9=
EXTT10=
EXTT11=
EXTT12=
EXTT13=
EXTT14=
EXTT15=
PLAYORDER=
